HIERARCHY
ROOT hip
{
  OFFSET 0 0 0
  CHANNELS 6 Xposition Yposition Zposition Zrotation Yrotation Xrotation
  JOINT abdomen
  {
    OFFSET 0 20.6881 -0.73152
    CHANNELS 3 Zrotation Xrotation Yrotation
    JOINT chest
    {
      OFFSET 0 11.7043 -0.48768
      CHANNELS 3 Zrotation Xrotation Yrotation
      JOINT neck
      {
        OFFSET 0 22.1894 -2.19456
        CHANNELS 3 Zrotation Xrotation Yrotation
        JOINT head
        {
          OFFSET -0.24384 7.07133 1.2192
          CHANNELS 3 Zrotation Xrotation Yrotation
          JOINT leftEye
          {
            OFFSET 4.14528 8.04674 8.04672
            CHANNELS 3 Zrotation Xrotation Yrotation
            End Site
            {
              OFFSET 1 0 0
            }
          }
          JOINT rightEye
          {
            OFFSET -3.6576 8.04674 8.04672
            CHANNELS 3 Zrotation Xrotation Yrotation
            End Site
            {
              OFFSET 1 0 0
            }
          }
        }
      }
      JOINT rCollar
      {
        OFFSET -2.68224 19.2634 -4.8768
        CHANNELS 3 Zrotation Xrotation Yrotation
        JOINT rShldr
        {
          OFFSET -8.77824 -1.95073 1.46304
          CHANNELS 3 Zrotation Xrotation Yrotation
          JOINT rForeArm
          {
            OFFSET -28.1742 -1.7115 0.48768
            CHANNELS 3 Zrotation Xrotation Yrotation
            JOINT rHand
            {
              OFFSET -22.5879 0.773209 7.07136
              CHANNELS 3 Zrotation Xrotation Yrotation
              JOINT rThumb1
              {
                OFFSET -1.2192 -0.487915 3.41376
                CHANNELS 3 Zrotation Xrotation Yrotation
                JOINT rThumb2
                {
                  OFFSET -3.37035 -0.52449 3.41376
                  CHANNELS 3 Zrotation Xrotation Yrotation
                  End Site
                  {
                    OFFSET -1.78271 -1.18214 1.43049
                  }
                }
              }
              JOINT rIndex1
              {
                OFFSET -7.75947 0.938293 5.60832
                CHANNELS 3 Zrotation Xrotation Yrotation
                JOINT rIndex2
                {
                  OFFSET -2.54057 -0.884171 1.56538
                  CHANNELS 3 Zrotation Xrotation Yrotation
                  End Site
                  {
                    OFFSET -1.62519 -0.234802 1.16502
                  }
                }
              }
              JOINT rMid1
              {
                OFFSET -8.24714 1.18213 3.41376
                CHANNELS 3 Zrotation Xrotation Yrotation
                JOINT rMid2
                {
                  OFFSET -3.10165 -0.590103 1.0647
                  CHANNELS 3 Zrotation Xrotation Yrotation
                  End Site
                  {
                    OFFSET -2.48547 -0.328903 0.83742
                  }
                }
              }
              JOINT rRing1
              {
                OFFSET -8.82822 0.546677 1.51678
                CHANNELS 3 Zrotation Xrotation Yrotation
                JOINT rRing2
                {
                  OFFSET -2.60934 -0.819778 -0.0198488
                  CHANNELS 3 Zrotation Xrotation Yrotation
                  End Site
                  {
                    OFFSET -2.33842 -0.294052 0.168128
                  }
                }
              }
              JOINT rPinky1
              {
                OFFSET -8.27202 -0.0477905 -0.4584
                CHANNELS 3 Zrotation Xrotation Yrotation
                JOINT rPinky2
                {
                  OFFSET -1.82734 -0.647385 -0.700984
                  CHANNELS 3 Zrotation Xrotation Yrotation
                  End Site
                  {
                    OFFSET -1.69225 -0.51767 -0.607171
                  }
                }
              }
            }
          }
        }
      }
      JOINT lCollar
      {
        OFFSET 2.68224 19.2634 -4.8768
        CHANNELS 3 Zrotation Xrotation Yrotation
        JOINT lShldr
        {
          OFFSET 8.77824 -1.95073 1.46304
          CHANNELS 3 Zrotation Xrotation Yrotation
          JOINT lForeArm
          {
            OFFSET 28.1742 -1.7115 0.48768
            CHANNELS 3 Zrotation Xrotation Yrotation
            JOINT lHand
            {
              OFFSET 22.5879 0.773209 7.07136
              CHANNELS 3 Zrotation Xrotation Yrotation
              JOINT lThumb1
              {
                OFFSET 1.2192 -0.487915 3.41376
                CHANNELS 3 Zrotation Xrotation Yrotation
                JOINT lThumb2
                {
                  OFFSET 3.37035 -0.52449 3.41376
                  CHANNELS 3 Zrotation Xrotation Yrotation
                  End Site
                  {
                    OFFSET 1.78271 -1.18214 1.43049
                  }
                }
              }
              JOINT lIndex1
              {
                OFFSET 7.75947 0.938293 5.60832
                CHANNELS 3 Zrotation Xrotation Yrotation
                JOINT lIndex2
                {
                  OFFSET 2.54057 -0.884171 1.56538
                  CHANNELS 3 Zrotation Xrotation Yrotation
                  End Site
                  {
                    OFFSET 1.62519 -0.234802 1.16502
                  }
                }
              }
              JOINT lMid1
              {
                OFFSET 8.24714 1.18213 3.41376
                CHANNELS 3 Zrotation Xrotation Yrotation
                JOINT lMid2
                {
                  OFFSET 3.10165 -0.590103 1.0647
                  CHANNELS 3 Zrotation Xrotation Yrotation
                  End Site
                  {
                    OFFSET 2.48547 -0.328903 0.83742
                  }
                }
              }
              JOINT lRing1
              {
                OFFSET 8.82822 0.546677 1.51678
                CHANNELS 3 Zrotation Xrotation Yrotation
                JOINT lRing2
                {
                  OFFSET 2.60934 -0.819778 -0.0198488
                  CHANNELS 3 Zrotation Xrotation Yrotation
                  End Site
                  {
                    OFFSET 2.33842 -0.294052 0.168128
                  }
                }
              }
              JOINT lPinky1
              {
                OFFSET 8.27202 -0.0477905 -0.4584
                CHANNELS 3 Zrotation Xrotation Yrotation
                JOINT lPinky2
                {
                  OFFSET 1.82734 -0.647385 -0.700984
                  CHANNELS 3 Zrotation Xrotation Yrotation
                  End Site
                  {
                    OFFSET 1.69225 -0.51767 -0.607171
                  }
                }
              }
            }
          }
        }
      }
    }
  }
  JOINT rButtock
  {
    OFFSET -8.77824 4.35084 1.2192
    CHANNELS 3 Zrotation Xrotation Yrotation
    JOINT rThigh
    {
      OFFSET 0 -1.70687 -2.19456
      CHANNELS 3 Zrotation Xrotation Yrotation
      JOINT rShin
      {
        OFFSET 0 -36.8199 0.73152
        CHANNELS 3 Zrotation Xrotation Yrotation
        JOINT rFoot
        {
          OFFSET 0.73152 -45.1104 -5.12064
          CHANNELS 3 Zrotation Xrotation Yrotation
          End Site
          {
            OFFSET -1.1221 -3.69964 12.103
          }
        }
      }
    }
  }
  JOINT lButtock
  {
    OFFSET 8.77824 4.35084 1.2192
    CHANNELS 3 Zrotation Xrotation Yrotation
    JOINT lThigh
    {
      OFFSET 0 -1.70687 -2.19456
      CHANNELS 3 Zrotation Xrotation Yrotation
      JOINT lShin
      {
        OFFSET 0 -36.8199 0.73152
        CHANNELS 3 Zrotation Xrotation Yrotation
        JOINT lFoot
        {
          OFFSET -0.73152 -45.1104 -5.12064
          CHANNELS 3 Zrotation Xrotation Yrotation
          End Site
          {
            OFFSET 1.1221 -3.69964 12.103
          }
        }
      }
    }
  }
}
MOTION
Frames:	4
Frame Time:	0.00833333
56.55 83.0552 109.64 179.314 -3.0854 -146.668 -7.11075 -27.8244 -3.1479 3.01692 11.1177 -1.14462 -1.78739 21.1018 -8.65289 4.28699 -52.9548 -18.109 -0.0 0.0 0.0 -0.0 0.0 0.0 4.8819e-14 2.31733e-13 1.84714e-14 82.7945 18.91 -7.86301 -15.8879 -8.58352 29.4359 -0.00916395 -2.67294 -0.37594 -8.78742e-14 -3.01187e-10 -5.0793e-10 1.56058e-12 -5.24895e-10 -8.77082e-10 -8.6417e-14 -3.01182e-10 -5.07936e-10 7.73091 5.47488 0.417314 -9.12048e-14 -3.01182e-10 -5.07925e-10 2.90554 0.965183 0.102902 -8.20177e-14 -3.0118e-10 -5.07926e-10 10.2786 0.731801 0.0259123 -9.34669e-14 -3.01177e-10 -5.07914e-10 2.22167 -0.733487 -0.20892 4.89055e-14 2.31734e-13 1.83068e-14 -66.3936 53.5416 0.564216 16.2787 -8.94901 -30.2626 0.000124825 -0.36399 0.0511546 -8.86861e-10 -1.57875e-10 2.93237e-11 -1.5312e-09 -2.69114e-10 5.37064e-11 -8.86863e-10 -1.5787e-10 2.93331e-11 -7.73091 5.47488 -0.417314 -8.86866e-10 -1.57874e-10 2.93177e-11 -2.90554 0.965183 -0.102902 -8.86862e-10 -1.57867e-10 2.93236e-11 -10.2786 0.731801 -0.0259123 -8.86857e-10 -1.57865e-10 2.93169e-11 -2.22167 -0.733487 0.20892 -2.03217e-16 0.0 -3.88251e-19 4.79463 -44.523 13.8258 -0.0443246 21.1556 0.428974 -3.85015 -17.3945 -9.50662 2.03217e-16 0.0 3.88251e-19 -4.14847 -42.6631 -13.7108 0.0849186 19.3767 -0.306565 2.06883 -7.92395 7.73584
56.5705 82.8684 109.966 179.157 -3.1328 -146.094 -7.13556 -27.5044 -3.24731 3.00223 10.8394 -1.16911 -1.73641 20.9538 -8.67539 3.90206 -53.3019 -18.4548 -0.0 0.0 0.0 -0.0 0.0 0.0 2.8763e-14 -1.43147e-14 -7.36e-14 82.8478 19.2791 -8.41605 -16.2233 -8.89595 30.1471 -0.0113203 -2.98671 -0.420147 6.7849e-10 -2.22169e-09 7.56136e-10 1.17699e-09 -3.84432e-09 1.31128e-09 6.78491e-10 -2.22169e-09 7.56128e-10 7.73091 5.47488 0.417314 6.78488e-10 -2.22169e-09 7.56143e-10 2.90554 0.965183 0.102902 6.78494e-10 -2.22169e-09 7.56142e-10 10.2786 0.731801 0.0259123 6.78483e-10 -2.22169e-09 7.56152e-10 2.22167 -0.733487 -0.20892 2.86814e-14 -1.43107e-14 -7.37988e-14 -66.3533 53.8336 1.1034 16.5205 -9.18035 -30.7784 0.000414425 -0.637034 0.089531 1.48913e-09 9.06026e-10 -4.17199e-10 2.57204e-09 1.56455e-09 -7.22935e-10 1.48913e-09 9.06027e-10 -4.1719e-10 -7.73091 5.47488 -0.417314 1.48913e-09 9.06024e-10 -4.17204e-10 -2.90554 0.965183 -0.102902 1.48913e-09 9.06028e-10 -4.172e-10 -10.2786 0.731801 -0.0259123 1.48914e-09 9.06031e-10 -4.17207e-10 -2.22167 -0.733487 0.20892 -2.03217e-16 0.0 -3.88251e-19 4.91911 -45.9485 13.7019 -0.0541662 22.491 0.459913 -4.00189 -17.7366 -9.75037 2.03217e-16 0.0 3.88251e-19 -4.68516 -44.3271 -14.2406 0.0979302 21.2461 -0.342663 2.16426 -8.43563 7.82087
56.6044 82.669 110.252 178.955 -3.2825 -145.669 -7.13095 -27.1355 -3.33241 2.97507 10.5353 -1.18951 -1.72577 20.8344 -8.69416 3.64097 -53.6093 -18.7224 -0.0 0.0 0.0 -0.0 0.0 0.0 4.45239e-15 -2.65928e-13 -1.58838e-13 82.9216 19.5822 -8.98854 -16.5612 -9.21862 30.8691 -0.0131618 -3.25835 -0.458434 1.34179e-09 -4.04742e-09 2.02082e-09 2.32566e-09 -6.9996e-09 3.50067e-09 1.34179e-09 -4.04742e-09 2.02081e-09 7.73091 5.47488 0.417314 1.34179e-09 -4.04742e-09 2.02083e-09 2.90554 0.965183 0.102902 1.34179e-09 -4.04742e-09 2.02083e-09 10.2786 0.731801 0.0259123 1.34178e-09 -4.04742e-09 2.02084e-09 2.22167 -0.733487 -0.20892 4.2043e-15 -2.65922e-13 -1.59071e-13 -66.3141 54.1119 1.63998 16.7582 -9.41144 -31.2894 0.000912495 -0.89738 0.126128 3.86566e-09 1.95006e-09 -8.43094e-10 6.67631e-09 3.36386e-09 -1.46393e-09 3.86565e-09 1.95005e-09 -8.43085e-10 -7.73091 5.47488 -0.417314 3.86565e-09 1.95005e-09 -8.43096e-10 -2.90554 0.965183 -0.102902 3.86565e-09 1.95005e-09 -8.43096e-10 -10.2786 0.731801 -0.0259123 3.86566e-09 1.95005e-09 -8.43103e-10 -2.22167 -0.733487 0.20892 -2.03217e-16 0.0 -3.88251e-19 5.04673 -47.4012 13.5345 -0.0656734 23.8974 0.493445 -4.16153 -18.109 -9.99395 2.03217e-16 0.0 3.88251e-19 -5.26011 -46.0429 -14.7827 0.113274 23.22 -0.38125 2.24774 -8.96048 7.83839
56.6672 82.4639 110.514 178.904 -3.6018 -145.347 -7.05695 -26.7435 -3.37561 2.93551 10.244 -1.20012 -1.85057 20.7871 -8.70727 3.76884 -53.8171 -18.7591 -0.0 0.0 0.0 -0.0 0.0 0.0 -1.87466e-14 -4.26199e-13 -1.91082e-13 82.9966 19.8735 -9.56597 -16.9048 -9.55585 31.6071 -0.0153051 -3.52977 -0.496711 1.71273e-09 -4.91931e-09 2.77922e-09 2.96742e-09 -8.50564e-09 4.81375e-09 1.71273e-09 -4.91931e-09 2.7792e-09 7.73091 5.47488 0.417314 1.71273e-09 -4.91931e-09 2.77923e-09 2.90554 0.965183 0.102902 1.71273e-09 -4.91931e-09 2.77923e-09 10.2786 0.731801 0.0259123 1.71272e-09 -4.91931e-09 2.77923e-09 2.22167 -0.733487 -0.20892 -1.90735e-14 -4.26192e-13 -1.9133e-13 -66.2654 54.3715 2.14398 16.9881 -9.63865 -31.7877 0.00155479 -1.12583 0.158246 5.27053e-09 2.51485e-09 -1.06821e-09 9.10273e-09 4.33695e-09 -1.85594e-09 5.27052e-09 2.51484e-09 -1.0682e-09 -7.73091 5.47488 -0.417314 5.27053e-09 2.51484e-09 -1.06821e-09 -2.90554 0.965183 -0.102902 5.27052e-09 2.51484e-09 -1.06821e-09 -10.2786 0.731801 -0.0259123 5.27054e-09 2.51484e-09 -1.06822e-09 -2.22167 -0.733487 0.20892 -2.03217e-16 0.0 -3.88251e-19 5.23843 -48.8606 13.3821 -0.0785821 25.3768 0.52933 -4.31318 -18.5049 -10.1964 2.03217e-16 0.0 3.88251e-19 -5.80627 -47.7625 -15.2951 0.1305 25.2088 -0.420335 2.31038 -9.46802 7.7818
